<?xml version="1.0" standalone="no"?>
<!DOCTYPE svg PUBLIC "-//W3C//DTD SVG 1.1//EN" "http://www.w3.org/Graphics/SVG/1.1/DTD/svg11.dtd" >
<svg xmlns="http://www.w3.org/2000/svg">
<metadata></metadata>
<defs>
<font id="falco_blackblack" horiz-adv-x="966" >
<font-face units-per-em="2048" ascent="1536" descent="-512" />
<missing-glyph horiz-adv-x="425" />
<glyph horiz-adv-x="0" />
<glyph unicode="&#xd;" horiz-adv-x="425" />
<glyph horiz-adv-x="0" />
<glyph horiz-adv-x="0" />
<glyph unicode=" "  horiz-adv-x="425" />
<glyph unicode="&#x09;" horiz-adv-x="425" />
<glyph unicode="&#xa0;" horiz-adv-x="425" />
<glyph unicode="!" horiz-adv-x="522" d="M104 494v1042h306v-1042h-306zM111 152q0 68 48 114.5t115 46.5q66 0 113 -47t47 -114q0 -66 -47 -114t-113 -48q-68 0 -115.5 48t-47.5 114z" />
<glyph unicode="&#x22;" horiz-adv-x="974" d="M94 1438q0 78 54.5 132t132.5 54q39 0 73.5 -14.5t60 -40t40 -59t14.5 -72.5q0 -47 -23 -88q-12 -23 -26 -39l-141 -197h-148l102 143q-59 16 -99 65.5t-40 115.5zM516 1438q0 39 14.5 72.5t40 59t60.5 40t74 14.5q78 0 132 -54t54 -132q0 -47 -23 -88q-4 -10 -11 -19.5 t-15 -19.5l-142 -197h-145l102 143q-61 16 -101 65.5t-40 115.5z" />
<glyph unicode="#" horiz-adv-x="1984" d="M61 279v378h369l74 215h-191v379h320l94 285h399l-94 -285h271l96 285h399l-98 -285h221v-379h-348l-74 -215h170v-378h-297l-94 -275h-397l92 275h-271l-92 -275h-399l94 275h-244zM829 657h273l72 215h-271z" />
<glyph unicode="$" horiz-adv-x="1429" d="M74 254l258 258l14 -12q76 -76 184 -111v227q-74 18 -158.5 50t-153 89.5t-112 143.5t-32.5 211q6 84 46 160t116 135q57 47 132.5 79t161.5 48v94h371v-100q262 -47 442 -230l15 -16l-256 -258l-17 16q-84 78 -184 113v-229q76 -16 160 -49t152.5 -90.5t110.5 -143.5 t34 -209q-6 -84 -46 -160.5t-116 -136.5q-57 -47 -133 -77.5t-162 -47.5v-106h-371v108q-262 53 -442 230zM438 1081q-2 -16 9.5 -38.5t82.5 -47.5v158q-20 -10 -36.5 -18.5t-26.5 -16.5q-14 -10 -21.5 -20.5t-7.5 -16.5zM901 385q20 10 36.5 17.5t29.5 17.5q26 19 26 33v18 t-9 21.5t-27.5 23.5t-55.5 25v-156z" />
<glyph unicode="%" horiz-adv-x="1605" d="M82 -2l1108 1536h326l-1110 -1536h-324zM137 1217q0 59 23.5 112t63.5 93t93.5 62.5t114.5 22.5q59 0 112.5 -22.5t93.5 -62.5t63.5 -93t23.5 -112q0 -61 -23.5 -114.5t-63.5 -93.5t-93.5 -62.5t-112.5 -22.5q-61 0 -114.5 22.5t-93.5 62.5t-63.5 93t-23.5 115zM324 1217 q0 -47 30.5 -78t77.5 -31q45 0 76 30.5t31 78.5q0 45 -31 75.5t-76 30.5q-47 0 -77.5 -30.5t-30.5 -75.5zM903 295q0 61 23.5 114.5t63.5 93.5t93.5 62.5t112.5 22.5q61 0 114.5 -22.5t93.5 -62.5t63.5 -93.5t23.5 -114.5q0 -59 -23.5 -112.5t-63.5 -93.5t-93.5 -62.5 t-114.5 -22.5q-59 0 -112.5 22.5t-93.5 62.5t-63.5 93.5t-23.5 112.5zM1090 295q0 -45 31.5 -76t74.5 -31q45 0 78 31t33 76q0 47 -33 77.5t-78 30.5q-43 0 -74.5 -30.5t-31.5 -77.5z" />
<glyph unicode="&#x26;" horiz-adv-x="1574" d="M76 469q0 123 69.5 225.5t186.5 163.5q-39 53 -60.5 115.5t-21.5 134.5q0 88 33.5 167t91 136t135.5 91t168 34q88 0 167 -34t137 -91t92 -136t34 -167q0 -117 -55.5 -211t-147.5 -149l125 -150l197 172l237 -268l-200 -176l266 -326l-430 2l-86 94q-72 -45 -163 -69.5 t-194 -24.5q-123 0 -228 36t-184 99.5t-124 148.5t-45 183zM451 430q23 -45 65.5 -66.5t134.5 -17.5q33 2 63.5 10.5t53.5 16.5l-190 215q-12 -8 -20.5 -13.5t-29.5 -15.5q-51 -35 -72 -67.5t-5 -61.5zM604 1108q0 -29 21.5 -50.5t52.5 -21.5t52.5 21.5t21.5 50.5 q0 31 -21.5 52.5t-52.5 21.5t-52.5 -21.5t-21.5 -52.5z" />
<glyph unicode="'" horiz-adv-x="559" d="M92 1356q0 78 54.5 132t132.5 54q39 0 73.5 -14.5t60 -40t40 -59t14.5 -72.5q0 -47 -23 -88q-6 -10 -12 -19.5t-16 -19.5l-142 -197h-145l102 144q-59 16 -99 65t-40 115z" />
<glyph unicode="(" horiz-adv-x="657" d="M76 762q0 250 48 481.5t140 427.5l336 -141q-80 -152 -127 -349.5t-47 -418.5q0 -217 45 -413.5t125 -346.5l-338 -113l-12 -4q-82 190 -126 414.5t-44 462.5z" />
<glyph unicode=")" horiz-adv-x="657" d="M57 1536l336 141q92 -197 140.5 -428t48.5 -481q0 -240 -43 -463t-127 -416l-15 7l-336 112q78 150 124 344.5t46 415.5t-48 418.5t-126 349.5z" />
<glyph unicode="*" horiz-adv-x="825" d="M59 1083l170 99l-170 98l93 158l170 -99v197h182v-197l170 99l92 -158l-170 -98l170 -99l-92 -159l-170 100v-199h-182v199l-170 -100z" />
<glyph unicode="+" horiz-adv-x="839" d="M49 625v280h232v232h280v-232h232v-280h-232v-232h-280v232h-232z" />
<glyph unicode="," horiz-adv-x="462" d="M74 154q0 70 48 117.5t118 47.5t118 -48t48 -117q0 -45 -21 -78q-8 -18 -23 -35l-126 -174h-130l93 127q-53 14 -89 57t-36 103z" />
<glyph unicode="-" d="M113 653v299h743v-299h-743z" />
<glyph unicode="." horiz-adv-x="522" d="M78 184q0 76 53 129.5t131 53.5q76 0 129 -53.5t53 -129.5q0 -78 -53 -131t-129 -53q-78 0 -131 53t-53 131z" />
<glyph unicode="/" horiz-adv-x="1091" d="M16 -6l756 1540h303l-753 -1540h-306z" />
<glyph unicode="0" horiz-adv-x="1384" d="M78 766q0 158 49 298t132 244.5t194.5 165t238.5 60.5t239.5 -60.5t196.5 -165t132.5 -244.5t48.5 -298q0 -160 -48.5 -299t-132.5 -243.5t-196.5 -165t-239.5 -60.5t-238.5 60.5t-194.5 165t-132 243.5t-49 299zM414 766q0 -88 22.5 -167t60.5 -138.5t89 -94t106 -34.5 q57 0 108.5 34.5t90.5 94t61.5 138.5t22.5 167t-22.5 167t-61.5 137t-90.5 93t-108.5 35q-55 0 -106 -35t-89 -93t-60.5 -137t-22.5 -167z" />
<glyph unicode="1" horiz-adv-x="737" d="M27 1436l600 96v-1530h-330v1141l-217 -35z" />
<glyph unicode="2" horiz-adv-x="1304" d="M84 0v324l704 645q55 47 68.5 68.5t13.5 29.5q0 41 -30 72q-29 29 -83.5 45t-117.5 14q-78 -2 -143.5 -20.5t-106.5 -53.5l-217 256q86 72 204 111t257 43q131 2 246.5 -39t193.5 -119q66 -61 98.5 -140t32.5 -169q0 -104 -48 -182t-112 -133l-454 -418h622v-334h-1128z " />
<glyph unicode="3" horiz-adv-x="1312" d="M78 197l237 235q47 -47 118 -72.5t153 -25.5q66 0 125 17.5t103 47t70.5 68.5t26.5 84q0 43 -26.5 83t-70.5 68.5t-103.5 46t-124.5 17.5q-29 0 -57.5 -4t-57.5 -10l-154 284l181 164h-314v336h856v-291l-211 -184q92 -31 168 -81t131.5 -116.5t86 -146.5t30.5 -166 q0 -115 -52 -215t-141 -175t-210 -118t-256 -43q-147 0 -279.5 51t-228.5 146z" />
<glyph unicode="4" horiz-adv-x="1204" d="M25 295v338l673 903h308v-903h116v-338h-116v-293h-336v293h-645zM442 633h228v301z" />
<glyph unicode="5" horiz-adv-x="1316" d="M80 754l135 780h895v-336h-614l-21 -113q35 8 71.5 11.5t71.5 3.5q129 0 242 -43t197 -118t133 -175t49 -213q0 -115 -49 -215t-133 -175t-196.5 -118t-242.5 -43q-147 0 -276 56.5t-221 160.5l256 217q41 -47 104.5 -73.5t136.5 -26.5q57 0 109.5 17.5t92.5 47 t62.5 68.5t22.5 84q0 43 -22.5 83t-62.5 68.5t-92 46t-110 17.5q-123 0 -208 -68z" />
<glyph unicode="6" horiz-adv-x="1349" d="M57 543q0 80 26 154.5t73 138.5v2l493 696h408l-322 -457q117 -10 217.5 -55t174 -116.5t116.5 -165t43 -197.5q0 -113 -48 -211.5t-131 -172t-195.5 -115.5t-239.5 -42t-240 42t-195.5 115.5t-131 172t-48.5 211.5zM391 543q0 -43 22.5 -80t60.5 -65.5t89.5 -45 t108.5 -16.5t107 16.5t89 45t61.5 65.5t22.5 80q0 41 -22.5 78.5t-61.5 65.5t-89 44.5t-107 16.5t-108.5 -16.5t-89.5 -44.5t-60.5 -65.5t-22.5 -78.5z" />
<glyph unicode="7" horiz-adv-x="1181" d="M84 0l676 1198h-576v338h963v-334l-678 -1202h-385z" />
<glyph unicode="8" horiz-adv-x="1331" d="M74 518q0 119 54 219.5t148 171.5q-72 100 -71 219q0 84 35.5 158t98 129t146.5 87t179 32q96 0 180 -32t147.5 -87t99 -129t35.5 -158q1 -117 -73 -219q96 -72 150 -172t54 -219q0 -109 -47 -203t-126.5 -164.5t-188.5 -111.5t-231 -41q-121 0 -228.5 41t-187.5 111.5 t-127 165t-47 202.5zM395 518q0 -41 21.5 -76.5t58.5 -63.5t85.5 -43.5t103.5 -15.5t105 15.5t87 43.5t58.5 63.5t21.5 76.5t-21.5 77t-58.5 63.5t-87 43t-105 15.5t-103.5 -15.5t-85.5 -43t-58.5 -63.5t-21.5 -77zM541 1128q0 -23 32.5 -47t90.5 -24q59 0 93 24.5t34 46.5 q0 23 -34 47.5t-93 24.5q-57 0 -90 -24.5t-33 -47.5z" />
<glyph unicode="9" horiz-adv-x="1351" d="M63 995q0 113 48.5 211.5t132.5 172t195.5 116.5t238.5 43q129 0 241.5 -43t196.5 -116.5t132 -172t48 -211.5q0 -82 -26.5 -156.5t-73.5 -138.5h2l-493 -700h-410l319 457q-115 10 -215 56t-174.5 119t-118 166t-43.5 197zM397 995q0 -41 22.5 -78.5t60.5 -66.5 t89.5 -45.5t108.5 -16.5t109.5 16.5t91.5 45.5t61.5 66.5t22.5 78.5q0 43 -22.5 80t-61.5 65.5t-91.5 45t-109.5 16.5t-108.5 -16.5t-89.5 -45t-60.5 -65.5t-22.5 -80z" />
<glyph unicode=":" horiz-adv-x="538" d="M82 446q0 39 14.5 73t40 59.5t60 40t73.5 14.5q78 0 132.5 -54.5t54.5 -132.5q0 -39 -14.5 -73.5t-40 -60t-59.5 -40t-73 -14.5t-73.5 14.5t-60 40t-40 60.5t-14.5 73zM82 1018q0 39 14.5 73.5t40 60.5t60 40t73.5 14t73 -14t59.5 -40t40 -60.5t14.5 -73.5 q0 -78 -54.5 -132.5t-132.5 -54.5q-39 0 -73.5 14.5t-60 40t-40 59.5t-14.5 73z" />
<glyph unicode=";" horiz-adv-x="509" d="M72 481q0 39 14 73t40 59.5t59.5 40t72.5 14.5q78 0 132 -54.5t54 -132.5q0 -49 -22 -90q-4 -10 -11.5 -18t-15.5 -19l-141 -196h-145l102 141q-59 16 -99 66.5t-40 115.5zM72 1053q0 39 14 73.5t40 60t59.5 40t72.5 14.5t73 -14.5t59.5 -40t39.5 -60t14 -73.5 q0 -78 -54 -132.5t-132 -54.5q-39 0 -72.5 14.5t-59.5 40t-40 59.5t-14 73z" />
<glyph unicode="&#x3c;" horiz-adv-x="1085" d="M8 410v163l113 48l856 350v-256l-543 -223l543 -224v-256l-856 350z" />
<glyph unicode="=" horiz-adv-x="968" d="M113 381v297h745v-297h-745zM113 850v280h745v-280h-745z" />
<glyph unicode="&#x3e;" horiz-adv-x="1087" d="M113 12v256l542 224l-542 223v256l854 -350l112 -48v-163l-112 -48z" />
<glyph unicode="?" horiz-adv-x="1101" d="M37 1122q6 55 34.5 127t87 136.5t151 109.5t227.5 45q154 0 254 -44t158.5 -108.5t81 -135t22.5 -126.5q0 -125 -60.5 -226t-191.5 -187q-43 -29 -68.5 -51.5t-38 -39t-16.5 -29.5t-4 -24v-53h-291v53q0 70 22.5 127.5t58.5 104.5t82 85t93 70q45 31 70.5 55.5t37 46 t13.5 39t2 29.5q0 18 -10.5 40t-36 40.5t-68.5 30.5t-110 12q-63 0 -103.5 -18.5t-63 -44t-31.5 -52t-11 -44.5zM383 160q0 66 48 112.5t116 46.5q66 0 113 -46.5t47 -112.5q0 -68 -47.5 -115t-112.5 -47q-68 0 -116 47t-48 115z" />
<glyph unicode="@" horiz-adv-x="1689" d="M78 766q0 160 60.5 300t165 245.5t244.5 166t298 60.5q160 0 300 -60.5t245.5 -166t166 -245.5t60.5 -300q0 -121 -41 -248v-2q-18 -43 -47 -87t-69 -79t-91 -56.5t-110 -21.5q-4 0 -8.5 1t-8.5 1q-63 2 -125 35l109 -215l-31 -14q-162 -82 -350 -82q-158 0 -298 60.5 t-244.5 165t-165 244.5t-60.5 298zM332 766q0 -106 41 -199.5t110.5 -164t162.5 -111.5t200 -41q125 0 235 55l25 12q-63 43 -94 111q-96 -61 -215 -61q-84 0 -157 31.5t-127 85t-86 126t-32 156.5t32 157.5t86 128t127 86t157 31.5q102 0 190 -47v47h187q-68 53 -151 84 t-177 31q-106 0 -199.5 -41t-163 -111.5t-110.5 -165t-41 -200.5zM649 766q0 -61 43 -104.5t105 -43.5q63 0 106 43.5t43 104.5q0 63 -43 106t-106 43q-61 0 -104.5 -43t-43.5 -106zM1235 565l2 -10q4 -23 9 -26t14 -3h2q12 0 33 19.5t44 66.5q25 74 25 154q0 98 -34 186 t-95 156v-543z" />
<glyph unicode="A" horiz-adv-x="1480" d="M43 -2l606 1542h223l562 -1542h-367l-92 260h-465l-98 -260h-369zM645 598h207l-98 272z" />
<glyph unicode="B" horiz-adv-x="1437" d="M113 -2v1536h768q70 -2 150.5 -28.5t150 -83t115.5 -144.5t46 -213q0 -94 -26.5 -168t-71.5 -127q45 -55 71.5 -130t26.5 -173q0 -127 -40.5 -207t-88.5 -123q-49 -51 -106 -78.5t-107.5 -41t-87.5 -16.5t-45 -3h-755zM453 340h413q10 0 36 4t50 18q18 10 33.5 31 t15.5 74q0 51 -14 72.5t-35 31.5q-23 12 -46 18.5t-34 6.5h-419v-256zM453 938h415q12 2 36 7t46 18q23 14 37 34.5t14 67.5t-14 67.5t-37 34.5q-23 12 -46 18.5t-36 6.5h-415v-254z" />
<glyph unicode="C" horiz-adv-x="1486" d="M72 764q0 160 60.5 300t164.5 244.5t244.5 165t300.5 60.5q162 0 310 -65.5t259 -188.5l-248 -223q-63 70 -146 106.5t-175 36.5q-90 0 -170 -33.5t-139.5 -93t-93 -139.5t-33.5 -170t33.5 -169t93 -138.5t139.5 -93t170 -33.5q92 0 175 36.5t146 106.5l248 -225 q-111 -123 -259 -187.5t-310 -64.5q-160 0 -300.5 60.5t-244.5 165t-164.5 244.5t-60.5 298z" />
<glyph unicode="D" horiz-adv-x="1415" d="M113 -2v1536h471q6 0 39.5 -3t85 -13.5t116 -30t131.5 -53.5q190 -98 290 -269.5t100 -396.5q0 -229 -101.5 -400t-294.5 -270q-68 -35 -132 -54t-115.5 -29.5t-86 -13.5t-41.5 -3h-2h-460zM446 334h121q6 0 28.5 2t55.5 9t74 19.5t82 34.5q207 109 207 369 q0 258 -203 367q-41 20 -81 32.5t-72.5 19.5t-54 10t-28.5 3h-129v-866z" />
<glyph unicode="E" horiz-adv-x="1282" d="M113 0v1534h1056v-334h-723v-266h441v-334h-441v-264h723v-336h-1056z" />
<glyph unicode="F" horiz-adv-x="1216" d="M113 0v1534h1081v-342h-739v-272h450v-340h-450v-580h-342z" />
<glyph unicode="G" horiz-adv-x="1671" d="M76 768q0 158 60.5 297t163.5 243.5t242.5 165t297.5 60.5q164 0 312 -66.5t259 -189.5l-252 -223q-61 68 -144 104.5t-175 36.5q-88 0 -166 -34t-136.5 -91t-92 -136t-33.5 -167t33.5 -166t92 -135t136.5 -91t166 -34q133 0 238.5 71.5t154.5 186.5h-393v338h766v-170 q0 -158 -60.5 -297t-165 -242.5t-243.5 -164t-297 -60.5t-297.5 60.5t-242.5 164t-163.5 242.5t-60.5 297z" />
<glyph unicode="H" horiz-adv-x="1486" d="M113 0v1536h344v-606h573v606h344v-1536h-344v588h-573v-588h-344z" />
<glyph unicode="I" horiz-adv-x="563" d="M113 0v1534h340v-1534h-340z" />
<glyph unicode="J" horiz-adv-x="1136" d="M14 145l224 248q66 -59 196 -59q133 0 199 65q25 25 39 54.5t21 59.5t10.5 55.5t3.5 39.5v4v2v918h331v-916q0 -16 -2 -63t-17 -110.5t-49 -136.5t-96 -136q-29 -29 -68.5 -59.5t-93 -55t-123 -40t-155.5 -15.5q-260 0 -420 145z" />
<glyph unicode="K" horiz-adv-x="1636" d="M10 0v193v489v371v477v6h6h324v-340v-168l80 84l403 426h467l-639 -670l826 -868h-463l-594 623l-80 -82v-541h-330z" />
<glyph unicode="L" horiz-adv-x="1220" d="M113 0v1532h340v-1190h749v-342h-1089z" />
<glyph unicode="M" horiz-adv-x="1763" d="M113 0v1536h276l500 -1008l485 1008h277v-1536h-340v621l-299 -621h-242l-315 641v-641h-281h-61z" />
<glyph unicode="N" horiz-adv-x="1492" d="M113 0v1536h284l641 -850v850h342v-1536h-256l-669 887v-887h-342z" />
<glyph unicode="O" horiz-adv-x="1691" d="M76 766q0 160 60.5 301t165 245.5t244.5 165t298 60.5q160 0 301 -60.5t245.5 -165t165 -245.5t60.5 -301q0 -158 -60.5 -298t-165 -244.5t-245.5 -165t-301 -60.5q-158 0 -298 60.5t-244.5 165t-165 244.5t-60.5 298zM412 766q0 -90 33.5 -168t93 -137.5t137.5 -93 t168 -33.5t170 33.5t139 93t93 137.5t34 168t-34 170t-93 139.5t-139 93t-170 33.5t-168 -33.5t-137.5 -93t-93 -139.5t-33.5 -170z" />
<glyph unicode="P" horiz-adv-x="1378" d="M113 0v1534h770q70 -4 152.5 -32.5t152 -86t117 -146.5t47.5 -212q0 -125 -46 -213t-116 -144.5t-152 -83t-151 -28.5h-4h-437v-588h-333zM446 924h433q10 2 35.5 7t48.5 17t39 35t16 74q0 43 -15.5 69.5t-52.5 47.5q-27 14 -51.5 19t-30.5 7h-422v-276z" />
<glyph unicode="Q" horiz-adv-x="1724" d="M76 764q0 160 60.5 300t165 244.5t243.5 165t299 60.5t299 -60.5t243.5 -165t165 -244.5t60.5 -300q0 -111 -30 -213t-85 -189l145 -141l-231 -241l-145 141q-92 -59 -198.5 -92t-223.5 -33q-160 0 -299 60.5t-243.5 165t-165 243.5t-60.5 299zM410 764q0 -90 33.5 -169 t93 -137.5t138.5 -93t169 -34.5q88 0 168 35l-205 198l231 240l207 -201q16 37 24.5 79t8.5 83q0 90 -35 169t-93 138t-138 93t-168 34q-90 0 -169 -34t-138.5 -93t-93 -138t-33.5 -169z" />
<glyph unicode="R" horiz-adv-x="1525" d="M113 0v1534l770 -2q70 -4 152.5 -31.5t152 -85t117 -146.5t47.5 -214q0 -78 -18.5 -140.5t-50.5 -111.5t-74 -86t-89 -64l330 -653h-375l-295 588h-334v-588h-333zM446 922h433q10 2 34.5 7t49.5 19q20 10 36.5 33t16.5 74q0 45 -15.5 71.5t-50.5 47.5q-27 14 -51.5 19 t-32.5 5h-420v-276z" />
<glyph unicode="S" horiz-adv-x="1349" d="M98 274l281 185q25 -41 89 -77t163 -46q24 -2 47 -2q40 0 76 6q60 10 104 35q59 31 64 67q0 12 -5.5 35t-31 47.5t-78.5 45t-148 30.5q-135 12 -243.5 57t-182 114t-109.5 158q-28 70 -28 148q0 22 2 45q10 104 71.5 189.5t166.5 142.5q90 46 198 66q71 13 144 13 q38 0 76 -3q162 -16 295 -88t206 -182l-280 -183q-25 39 -90.5 74t-163.5 45q-24 2 -47 2q-40 0 -76 -6q-60 -10 -104 -33q-27 -16 -43.5 -33.5t-18.5 -33.5q-1 -5 -1 -10q-1 -33 23 -58q26 -29 67.5 -47.5t88.5 -29.5t82 -13v-2q137 -12 247 -56.5t182.5 -112t107.5 -157.5 q27 -68 27 -146q0 -24 -3 -50q-10 -100 -71.5 -186.5t-163.5 -141.5q-76 -41 -162 -61.5t-178 -20.5q-20 0 -40 1t-38 3q-164 14 -297 87t-205 183z" />
<glyph unicode="T" horiz-adv-x="1214" d="M55 1192v342h1104v-342h-381v-1192h-342v1192h-381z" />
<glyph unicode="U" horiz-adv-x="1447" d="M100 621v913h340v-918q0 -25 6 -49q4 -23 11.5 -50.5t23.5 -53.5q10 -18 27.5 -40t47.5 -40t73 -30.5t104 -12.5q133 0 201 70q25 25 39 55.5t21 61t10.5 56t3.5 38.5v4v4v905l342 -2v-901q0 -16 -3.5 -65.5t-18.5 -115t-49 -138t-97 -138.5q-29 -31 -69 -61.5t-95 -56 t-126 -42t-159 -16.5q-90 0 -161.5 16.5t-128 42t-98.5 56t-71 59.5q-66 66 -100.5 138.5t-52 137t-19.5 112.5t-2 61z" />
<glyph unicode="V" horiz-adv-x="1427" d="M47 1536h363l297 -856l309 856h366l-559 -1538h-243z" />
<glyph unicode="W" horiz-adv-x="1855" d="M70 1534h354l186 -703l189 703h282l168 -680l183 680h354l-414 -1536h-266l-174 711l-191 -711h-262z" />
<glyph unicode="X" horiz-adv-x="1652" d="M92 0l529 770l-525 766h412l317 -463l320 463h411l-524 -766l531 -770h-412l-326 471l-321 -471h-412z" />
<glyph unicode="Y" horiz-adv-x="1570" d="M45 1536h404l307 -475l354 475h424l-619 -827v-709h-337v715z" />
<glyph unicode="Z" horiz-adv-x="1404" d="M113 0v414l735 788h-735v334h1175v-354l-790 -846h790v-258h4v-78h-1179z" />
<glyph unicode="[" horiz-adv-x="604" d="M113 6v1524v258h282h119v-258h-119v-1524h119v-260h-119h-282v260z" />
<glyph unicode="\" horiz-adv-x="1089" d="M16 1534h306l751 -1538h-303z" />
<glyph unicode="]" horiz-adv-x="610" d="M94 -4h121v1542h-121v258h121h285v-258v-1542v-258h-285h-121v258z" />
<glyph unicode="^" horiz-adv-x="1425" d="M57 838l451 698h410l450 -698h-410l-245 383l-248 -383h-408z" />
<glyph unicode="_" horiz-adv-x="1019" d="M113 -2h796v-277h-796v277z" />
<glyph unicode="`" horiz-adv-x="724" d="M39 1536h414l223 -342l-270 -217z" />
<glyph unicode="a" horiz-adv-x="1480" d="M43 -2l606 1542h223l562 -1542h-367l-92 260h-465l-98 -260h-369zM645 598h207l-98 272z" />
<glyph unicode="b" horiz-adv-x="1437" d="M113 -2v1536h768q70 -2 150.5 -28.5t150 -83t115.5 -144.5t46 -213q0 -94 -26.5 -168t-71.5 -127q45 -55 71.5 -130t26.5 -173q0 -127 -40.5 -207t-88.5 -123q-49 -51 -106 -78.5t-107.5 -41t-87.5 -16.5t-45 -3h-755zM453 340h413q10 0 36 4t50 18q18 10 33.5 31 t15.5 74q0 51 -14 72.5t-35 31.5q-23 12 -46 18.5t-34 6.5h-419v-256zM453 938h415q12 2 36 7t46 18q23 14 37 34.5t14 67.5t-14 67.5t-37 34.5q-23 12 -46 18.5t-36 6.5h-415v-254z" />
<glyph unicode="c" horiz-adv-x="1486" d="M72 764q0 160 60.5 300t164.5 244.5t244.5 165t300.5 60.5q162 0 310 -65.5t259 -188.5l-248 -223q-63 70 -146 106.5t-175 36.5q-90 0 -170 -33.5t-139.5 -93t-93 -139.5t-33.5 -170t33.5 -169t93 -138.5t139.5 -93t170 -33.5q92 0 175 36.5t146 106.5l248 -225 q-111 -123 -259 -187.5t-310 -64.5q-160 0 -300.5 60.5t-244.5 165t-164.5 244.5t-60.5 298z" />
<glyph unicode="d" horiz-adv-x="1415" d="M113 -2v1536h471q6 0 39.5 -3t85 -13.5t116 -30t131.5 -53.5q190 -98 290 -269.5t100 -396.5q0 -229 -101.5 -400t-294.5 -270q-68 -35 -132 -54t-115.5 -29.5t-86 -13.5t-41.5 -3h-2h-460zM446 334h121q6 0 28.5 2t55.5 9t74 19.5t82 34.5q207 109 207 369 q0 258 -203 367q-41 20 -81 32.5t-72.5 19.5t-54 10t-28.5 3h-129v-866z" />
<glyph unicode="e" horiz-adv-x="1282" d="M113 0v1534h1056v-334h-723v-266h441v-334h-441v-264h723v-336h-1056z" />
<glyph unicode="f" horiz-adv-x="1216" d="M113 0v1534h1081v-342h-739v-272h450v-340h-450v-580h-342z" />
<glyph unicode="g" horiz-adv-x="1671" d="M76 768q0 158 60.5 297t163.5 243.5t242.5 165t297.5 60.5q164 0 312 -66.5t259 -189.5l-252 -223q-61 68 -144 104.5t-175 36.5q-88 0 -166 -34t-136.5 -91t-92 -136t-33.5 -167t33.5 -166t92 -135t136.5 -91t166 -34q133 0 238.5 71.5t154.5 186.5h-393v338h766v-170 q0 -158 -60.5 -297t-165 -242.5t-243.5 -164t-297 -60.5t-297.5 60.5t-242.5 164t-163.5 242.5t-60.5 297z" />
<glyph unicode="h" horiz-adv-x="1486" d="M113 0v1536h344v-606h573v606h344v-1536h-344v588h-573v-588h-344z" />
<glyph unicode="i" horiz-adv-x="563" d="M113 0v1534h340v-1534h-340z" />
<glyph unicode="j" horiz-adv-x="1136" d="M14 145l224 248q66 -59 196 -59q133 0 199 65q25 25 39 54.5t21 59.5t10.5 55.5t3.5 39.5v4v2v918h331v-916q0 -16 -2 -63t-17 -110.5t-49 -136.5t-96 -136q-29 -29 -68.5 -59.5t-93 -55t-123 -40t-155.5 -15.5q-260 0 -420 145z" />
<glyph unicode="k" horiz-adv-x="1662" d="M137 0v193v489v371v477v6h6h324v-340v-168l80 84l403 426h467l-639 -670l826 -868h-463l-594 623l-80 -82v-541h-330z" />
<glyph unicode="l" horiz-adv-x="1220" d="M113 0v1532h340v-1190h749v-342h-1089z" />
<glyph unicode="m" horiz-adv-x="1763" d="M113 0v1536h276l500 -1008l485 1008h277v-1536h-340v621l-299 -621h-242l-315 641v-641h-281h-61z" />
<glyph unicode="n" horiz-adv-x="1492" d="M113 0v1536h284l641 -850v850h342v-1536h-256l-669 887v-887h-342z" />
<glyph unicode="o" horiz-adv-x="1691" d="M76 766q0 160 60.5 301t165 245.5t244.5 165t298 60.5q160 0 301 -60.5t245.5 -165t165 -245.5t60.5 -301q0 -158 -60.5 -298t-165 -244.5t-245.5 -165t-301 -60.5q-158 0 -298 60.5t-244.5 165t-165 244.5t-60.5 298zM412 766q0 -90 33.5 -168t93 -137.5t137.5 -93 t168 -33.5t170 33.5t139 93t93 137.5t34 168t-34 170t-93 139.5t-139 93t-170 33.5t-168 -33.5t-137.5 -93t-93 -139.5t-33.5 -170z" />
<glyph unicode="p" horiz-adv-x="1378" d="M113 0v1534h770q70 -4 152.5 -32.5t152 -86t117 -146.5t47.5 -212q0 -125 -46 -213t-116 -144.5t-152 -83t-151 -28.5h-4h-437v-588h-333zM446 924h433q10 2 35.5 7t48.5 17t39 35t16 74q0 43 -15.5 69.5t-52.5 47.5q-27 14 -51.5 19t-30.5 7h-422v-276z" />
<glyph unicode="q" horiz-adv-x="1724" d="M76 764q0 160 60.5 300t165 244.5t243.5 165t299 60.5t299 -60.5t243.5 -165t165 -244.5t60.5 -300q0 -111 -30 -213t-85 -189l145 -141l-231 -241l-145 141q-92 -59 -198.5 -92t-223.5 -33q-160 0 -299 60.5t-243.5 165t-165 243.5t-60.5 299zM410 764q0 -90 33.5 -169 t93 -137.5t138.5 -93t169 -34.5q88 0 168 35l-205 198l231 240l207 -201q16 37 24.5 79t8.5 83q0 90 -35 169t-93 138t-138 93t-168 34q-90 0 -169 -34t-138.5 -93t-93 -138t-33.5 -169z" />
<glyph unicode="r" horiz-adv-x="1525" d="M113 0v1534l770 -2q70 -4 152.5 -31.5t152 -85t117 -146.5t47.5 -214q0 -78 -18.5 -140.5t-50.5 -111.5t-74 -86t-89 -64l330 -653h-375l-295 588h-334v-588h-333zM446 922h433q10 2 34.5 7t49.5 19q20 10 36.5 33t16.5 74q0 45 -15.5 71.5t-50.5 47.5q-27 14 -51.5 19 t-32.5 5h-420v-276z" />
<glyph unicode="s" horiz-adv-x="1349" d="M98 274l281 185q25 -41 89 -77t163 -46q24 -2 47 -2q40 0 76 6q60 10 104 35q59 31 64 67q0 12 -5.5 35t-31 47.5t-78.5 45t-148 30.5q-135 12 -243.5 57t-182 114t-109.5 158q-28 70 -28 148q0 22 2 45q10 104 71.5 189.5t166.5 142.5q90 46 198 66q71 13 144 13 q38 0 76 -3q162 -16 295 -88t206 -182l-280 -183q-25 39 -90.5 74t-163.5 45q-24 2 -47 2q-40 0 -76 -6q-60 -10 -104 -33q-27 -16 -43.5 -33.5t-18.5 -33.5q-1 -5 -1 -10q-1 -33 23 -58q26 -29 67.5 -47.5t88.5 -29.5t82 -13v-2q137 -12 247 -56.5t182.5 -112t107.5 -157.5 q27 -68 27 -146q0 -24 -3 -50q-10 -100 -71.5 -186.5t-163.5 -141.5q-76 -41 -162 -61.5t-178 -20.5q-20 0 -40 1t-38 3q-164 14 -297 87t-205 183z" />
<glyph unicode="t" horiz-adv-x="1214" d="M55 1192v342h1104v-342h-381v-1192h-342v1192h-381z" />
<glyph unicode="u" horiz-adv-x="1447" d="M100 621v913h340v-918q0 -25 6 -49q4 -23 11.5 -50.5t23.5 -53.5q10 -18 27.5 -40t47.5 -40t73 -30.5t104 -12.5q133 0 201 70q25 25 39 55.5t21 61t10.5 56t3.5 38.5v4v4v905l342 -2v-901q0 -16 -3.5 -65.5t-18.5 -115t-49 -138t-97 -138.5q-29 -31 -69 -61.5t-95 -56 t-126 -42t-159 -16.5q-90 0 -161.5 16.5t-128 42t-98.5 56t-71 59.5q-66 66 -100.5 138.5t-52 137t-19.5 112.5t-2 61z" />
<glyph unicode="v" horiz-adv-x="1427" d="M47 1536h363l297 -856l309 856h366l-559 -1538h-243z" />
<glyph unicode="w" horiz-adv-x="1855" d="M70 1534h354l186 -703l189 703h282l168 -680l183 680h354l-414 -1536h-266l-174 711l-191 -711h-262z" />
<glyph unicode="x" horiz-adv-x="1652" d="M92 0l529 770l-525 766h412l317 -463l320 463h411l-524 -766l531 -770h-412l-326 471l-321 -471h-412z" />
<glyph unicode="y" horiz-adv-x="1570" d="M45 1536h404l307 -475l354 475h424l-619 -827v-709h-337v715z" />
<glyph unicode="z" horiz-adv-x="1404" d="M113 0v414l735 788h-735v334h1175v-354l-790 -846h790v-258h4v-78h-1179z" />
<glyph unicode="{" horiz-adv-x="667" d="M47 629v4v280v2q47 0 84 33t39 80v506v258h279h122v-258h-122v-506q-4 -152 -99 -256q92 -104 99 -246v-526h122v-258h-122h-279v258v518q-2 47 -39 79t-84 32z" />
<glyph unicode="|" horiz-adv-x="520" d="M113 -6v1542h297v-1542h-297z" />
<glyph unicode="}" horiz-adv-x="671" d="M98 0h121v530q4 66 30.5 129.5t69.5 110.5q-45 53 -70.5 118.5t-29.5 139.5v506h-121v258h121h283v-258v-506q4 -47 38.5 -80t82.5 -33v-2v-280v-4q-47 0 -82 -32t-39 -79v-518v-258h-283h-121v258z" />
<glyph unicode="~" horiz-adv-x="1126" d="M35 705q4 6 22.5 29.5t56.5 49t96 47t142 21.5q45 0 82 -11.5t70 -29.5t60.5 -39.5t51.5 -42.5q51 -43 90.5 -67.5t90.5 -24.5q33 0 56.5 8t37.5 19q16 12 27 28l167 -84q-10 -23 -33.5 -50.5t-59.5 -52t-85 -42t-110 -17.5q-53 0 -96.5 13.5t-80 33t-68.5 44t-58 47.5 q-43 37 -75 58.5t-67 21.5q-43 0 -72.5 -8.5t-47 -18.5t-25.5 -19l-8 -10z" />
<glyph unicode="&#xad;" d="M113 653v299h743v-299h-743z" />
<glyph unicode="&#x2000;" horiz-adv-x="898" />
<glyph unicode="&#x2001;" horiz-adv-x="1796" />
<glyph unicode="&#x2002;" horiz-adv-x="898" />
<glyph unicode="&#x2003;" horiz-adv-x="1796" />
<glyph unicode="&#x2004;" horiz-adv-x="598" />
<glyph unicode="&#x2005;" horiz-adv-x="449" />
<glyph unicode="&#x2006;" horiz-adv-x="299" />
<glyph unicode="&#x2007;" horiz-adv-x="299" />
<glyph unicode="&#x2008;" horiz-adv-x="224" />
<glyph unicode="&#x2009;" horiz-adv-x="359" />
<glyph unicode="&#x200a;" horiz-adv-x="99" />
<glyph unicode="&#x2010;" d="M113 653v299h743v-299h-743z" />
<glyph unicode="&#x2011;" d="M113 653v299h743v-299h-743z" />
<glyph unicode="&#x2012;" d="M113 653v299h743v-299h-743z" />
<glyph unicode="&#x2013;" horiz-adv-x="1247" d="M113 653v299h1024v-299h-1024z" />
<glyph unicode="&#x2014;" horiz-adv-x="2271" d="M113 653v299h2048v-299h-2048z" />
<glyph unicode="&#x202f;" horiz-adv-x="359" />
<glyph unicode="&#x205f;" horiz-adv-x="449" />
<glyph unicode="&#x25fc;" horiz-adv-x="1536" d="M0 0v1536h1536v-1536h-1536z" />
</font>
</defs>
</svg>
